<svg 
 xmlns="http://www.w3.org/2000/svg"
 xmlns:xlink="http://www.w3.org/1999/xlink" viewbox="0 0 80 80"
 width="80" height="80">
<path fill-rule="evenodd"  fill="rgb(29, 194, 29)"
 d="M80.012,40.033 C80.012,43.271 77.812,46.005 74.829,46.820 C75.148,47.622 75.323,48.496 75.323,49.411 C75.323,52.650 73.121,55.383 70.137,56.196 C70.456,57.000 70.634,57.873 70.634,58.789 C70.634,62.667 67.479,65.823 63.600,65.823 L54.777,65.823 C51.317,65.823 47.871,65.354 44.536,64.429 L36.333,62.156 C33.887,61.477 31.359,61.133 28.821,61.133 L2.331,61.133 C1.036,61.133 -0.014,60.084 -0.014,58.789 L-0.014,25.966 C-0.014,24.671 1.036,23.621 2.331,23.621 L32.615,23.621 C35.882,23.621 38.939,22.280 41.000,19.941 C44.891,15.530 47.033,9.863 47.033,3.985 L47.033,2.521 C47.033,1.226 48.082,0.176 49.378,0.176 C55.841,0.176 61.099,5.435 61.099,11.899 L61.099,23.621 L72.979,23.621 C76.857,23.621 80.012,26.777 80.012,30.655 C80.012,32.455 79.332,34.098 78.217,35.344 C79.332,36.589 80.012,38.233 80.012,40.033 ZM23.588,28.310 L4.676,28.310 L4.676,56.444 L23.588,56.444 L23.588,28.310 ZM63.600,32.999 L72.979,32.999 C74.271,32.999 75.323,31.948 75.323,30.655 C75.323,29.362 74.271,28.310 72.979,28.310 L54.066,28.310 C52.771,28.310 51.722,27.261 51.722,25.966 C51.722,24.671 52.771,23.621 54.066,23.621 L56.411,23.621 L56.411,11.899 C56.411,8.833 54.438,6.217 51.694,5.258 C51.404,11.820 48.882,18.093 44.518,23.043 C41.565,26.390 37.227,28.279 32.615,28.279 L28.276,28.279 L28.276,56.444 L28.821,56.444 C31.783,56.444 34.732,56.845 37.586,57.637 L45.789,59.911 C48.716,60.722 51.740,61.133 54.777,61.133 L63.600,61.133 C64.893,61.133 65.945,60.081 65.945,58.789 C65.945,57.496 64.893,56.444 63.600,56.444 C62.305,56.444 61.256,55.395 61.256,54.100 C61.256,52.805 62.305,51.756 63.600,51.756 L68.290,51.756 C69.582,51.756 70.634,50.703 70.634,49.411 C70.634,48.118 69.582,47.066 68.290,47.066 L63.600,47.066 C62.305,47.066 61.256,46.017 61.256,44.722 C61.256,43.427 62.305,42.377 63.600,42.377 L72.979,42.377 C74.271,42.377 75.323,41.326 75.323,40.033 C75.323,38.741 74.271,37.688 72.979,37.688 L63.600,37.688 C62.305,37.688 61.256,36.639 61.256,35.344 C61.256,34.049 62.305,32.999 63.600,32.999 ZM16.555,47.066 C17.849,47.066 18.898,48.116 18.898,49.411 C18.898,50.706 17.849,51.756 16.555,51.756 C15.259,51.756 14.210,50.706 14.210,49.411 C14.210,48.116 15.259,47.066 16.555,47.066 Z"/>
</svg>