<svg 
 xmlns="http://www.w3.org/2000/svg"
 xmlns:xlink="http://www.w3.org/1999/xlink" viewbox="0 0 80 80"
 width="80" height="80">
<path fill-rule="evenodd"  fill="rgb(29, 194, 29)"
 d="M75.323,71.129 L75.323,78.562 C75.323,79.510 74.751,80.364 73.875,80.727 C73.000,81.090 71.992,80.890 71.321,80.219 L62.629,71.531 L25.932,71.531 C22.055,71.531 18.899,68.376 18.899,64.500 L18.899,43.250 L17.370,43.250 L8.677,51.938 C8.007,52.608 6.999,52.809 6.124,52.446 C5.247,52.084 4.676,51.229 4.676,50.281 L4.676,42.849 C1.946,41.881 -0.014,39.275 -0.014,36.219 L-0.014,7.939 C-0.014,4.062 3.142,0.908 7.020,0.908 L44.688,0.908 C48.566,0.908 51.722,4.062 51.722,7.939 L51.722,19.657 L72.978,19.657 C76.857,19.657 80.012,22.811 80.012,26.688 L80.012,64.500 C80.012,67.555 78.052,70.162 75.323,71.129 ZM47.033,7.939 C47.033,6.646 45.981,5.595 44.688,5.595 L7.020,5.595 C5.727,5.595 4.676,6.646 4.676,7.939 L4.676,36.219 C4.676,37.511 5.727,38.563 7.020,38.563 C8.315,38.563 9.364,39.612 9.364,40.907 L9.364,44.623 L14.740,39.250 C15.179,38.810 15.776,38.563 16.398,38.563 L18.899,38.563 L18.899,26.688 C18.899,22.811 22.055,19.657 25.932,19.657 L47.033,19.657 L47.033,7.939 ZM75.323,26.688 C75.323,25.396 74.272,24.345 72.978,24.345 L25.932,24.345 C24.640,24.345 23.588,25.396 23.588,26.688 L23.588,64.500 C23.588,65.792 24.640,66.843 25.932,66.843 L63.600,66.843 C64.223,66.843 64.819,67.091 65.258,67.530 L70.634,72.904 L70.634,69.187 C70.634,67.893 71.684,66.843 72.978,66.843 C74.272,66.843 75.323,65.792 75.323,64.500 L75.323,26.688 ZM56.017,46.894 C55.197,48.123 53.454,48.297 52.408,47.251 L49.742,44.585 L44.380,52.625 L63.445,52.625 C64.739,52.625 65.788,53.674 65.788,54.969 C65.788,56.263 64.739,57.313 63.445,57.313 L42.344,57.313 L42.344,59.656 C42.344,60.951 41.294,62.000 39.999,62.000 C38.704,62.000 37.655,60.951 37.655,59.656 L37.655,57.313 L35.310,57.313 C34.015,57.313 32.965,56.263 32.965,54.969 C32.965,53.674 34.015,52.625 35.310,52.625 L37.655,52.625 L37.655,31.532 C37.655,30.237 38.704,29.188 39.999,29.188 C41.294,29.188 42.344,30.237 42.344,31.532 L42.344,47.228 L47.427,39.606 C48.244,38.380 49.987,38.202 51.035,39.250 L53.702,41.915 L61.494,30.232 C62.212,29.155 63.667,28.864 64.744,29.581 C65.823,30.299 66.113,31.754 65.394,32.832 L56.017,46.894 Z"/>
</svg>