<svg 
 xmlns="http://www.w3.org/2000/svg"
 xmlns:xlink="http://www.w3.org/1999/xlink" viewbox="0 0 80 80"
 width="80" height="80">
<path fill-rule="evenodd"  fill="rgb(29, 194, 29)"
 d="M72.968,80.000 L7.031,80.000 C3.154,80.000 -0.001,76.845 -0.001,72.968 L-0.001,7.031 C-0.001,3.154 3.154,-0.001 7.031,-0.001 L72.968,-0.001 C76.845,-0.001 79.999,3.154 79.999,7.031 L79.999,72.968 C79.999,76.845 76.845,80.000 72.968,80.000 ZM75.312,7.031 C75.312,5.739 74.260,4.686 72.968,4.686 L7.031,4.686 C5.738,4.686 4.687,5.739 4.687,7.031 L4.687,18.905 L75.312,18.905 L75.312,7.031 ZM75.312,23.593 L4.687,23.593 L4.687,72.968 C4.687,74.260 5.738,75.312 7.031,75.312 L72.968,75.312 C74.260,75.312 75.312,74.260 75.312,72.968 L75.312,23.593 ZM68.124,65.937 L58.750,65.937 C57.455,65.937 56.406,64.887 56.406,63.593 C56.406,62.299 57.455,61.249 58.750,61.249 L68.124,61.249 C69.419,61.249 70.468,62.299 70.468,63.593 C70.468,64.887 69.419,65.937 68.124,65.937 ZM68.124,56.562 L58.750,56.562 C57.455,56.562 56.406,55.513 56.406,54.218 C56.406,52.924 57.455,51.875 58.750,51.875 L68.124,51.875 C69.419,51.875 70.468,52.924 70.468,54.218 C70.468,55.513 69.419,56.562 68.124,56.562 ZM68.124,47.187 L58.750,47.187 C57.455,47.187 56.406,46.138 56.406,44.843 C56.406,43.549 57.455,42.499 58.750,42.499 L68.124,42.499 C69.419,42.499 70.468,43.549 70.468,44.843 C70.468,46.138 69.419,47.187 68.124,47.187 ZM68.124,37.812 L58.750,37.812 C57.455,37.812 56.406,36.763 56.406,35.468 C56.406,34.174 57.455,33.124 58.750,33.124 L68.124,33.124 C69.419,33.124 70.468,34.174 70.468,35.468 C70.468,36.763 69.419,37.812 68.124,37.812 ZM46.910,50.272 C46.591,51.228 45.696,51.875 44.687,51.875 L25.937,51.875 C24.644,51.875 23.593,52.926 23.593,54.218 C23.593,55.510 24.644,56.562 25.937,56.562 L44.687,56.562 C45.981,56.562 47.030,57.611 47.030,58.905 C47.030,60.200 45.981,61.249 44.687,61.249 L42.344,61.249 L28.280,61.249 L25.937,61.249 C22.060,61.249 18.906,58.095 18.906,54.218 C18.906,51.873 20.060,49.795 21.829,48.517 L19.263,33.124 L11.874,33.124 C10.580,33.124 9.531,32.075 9.531,30.781 C9.531,29.486 10.580,28.437 11.874,28.437 L21.250,28.437 C22.395,28.437 23.373,29.265 23.561,30.395 L24.016,33.124 L49.374,33.124 C50.973,33.124 52.102,34.694 51.598,36.209 L46.910,50.272 ZM24.797,37.812 L26.359,47.187 L42.998,47.187 L46.122,37.812 L24.797,37.812 ZM47.030,65.937 C47.030,68.522 44.928,70.624 42.344,70.624 C39.758,70.624 37.656,68.522 37.656,65.937 C37.656,63.352 39.758,61.249 42.344,61.249 C44.928,61.249 47.030,63.352 47.030,65.937 ZM32.968,65.937 C32.968,68.522 30.865,70.624 28.280,70.624 C25.696,70.624 23.593,68.522 23.593,65.937 C23.593,63.352 25.696,61.249 28.280,61.249 C30.865,61.249 32.968,63.352 32.968,65.937 ZM11.874,9.374 C13.169,9.374 14.218,10.423 14.218,11.718 C14.218,13.013 13.169,14.062 11.874,14.062 C10.580,14.062 9.531,13.013 9.531,11.718 C9.531,10.423 10.580,9.374 11.874,9.374 ZM21.250,9.374 C22.544,9.374 23.593,10.423 23.593,11.718 C23.593,13.013 22.544,14.062 21.250,14.062 C19.954,14.062 18.906,13.013 18.906,11.718 C18.906,10.423 19.954,9.374 21.250,9.374 ZM30.624,9.374 C31.919,9.374 32.968,10.423 32.968,11.718 C32.968,13.013 31.919,14.062 30.624,14.062 C29.330,14.062 28.280,13.013 28.280,11.718 C28.280,10.423 29.330,9.374 30.624,9.374 ZM49.374,9.374 L68.124,9.374 C69.419,9.374 70.468,10.423 70.468,11.718 C70.468,13.013 69.419,14.062 68.124,14.062 L49.374,14.062 C48.080,14.062 47.030,13.013 47.030,11.718 C47.030,10.423 48.080,9.374 49.374,9.374 Z"/>
</svg>