<svg 
 xmlns="http://www.w3.org/2000/svg"
 xmlns:xlink="http://www.w3.org/1999/xlink" viewbox="0 0 217 25"
 width="217" height="25">
<path fill-rule="evenodd"  fill="rgb(255, 255, 255)"
 d="M208.443,13.751 L205.862,13.751 L205.862,19.865 L200.675,19.865 L200.675,0.411 L208.443,0.411 C213.294,0.411 216.995,1.967 216.995,7.081 C216.995,12.195 213.294,13.723 208.443,13.751 ZM208.695,4.858 L205.862,4.858 L205.862,9.305 L208.695,9.305 C210.265,9.305 211.667,8.832 211.667,7.081 C211.667,5.330 210.265,4.858 208.695,4.858 ZM183.373,0.411 L197.506,0.411 L197.506,4.858 L188.560,4.858 L188.560,7.832 L196.665,7.832 L196.665,12.250 L188.560,12.250 L188.560,15.419 L197.675,15.419 L197.675,19.865 L183.373,19.865 L183.373,0.411 ZM175.633,19.865 L170.446,19.865 L170.446,4.997 L164.894,4.997 L164.894,0.411 L181.158,0.411 L181.158,4.997 L175.633,4.997 L175.633,19.865 ZM159.702,14.283 L162.758,17.311 C158.761,21.273 152.280,21.273 148.283,17.311 C144.287,13.350 144.287,6.927 148.283,2.965 C152.280,-0.996 158.761,-0.996 162.758,2.965 L159.702,5.994 C157.393,3.705 153.648,3.705 151.339,5.993 C149.029,8.283 149.029,11.994 151.339,14.283 C153.648,16.572 157.393,16.572 159.702,14.283 ZM138.789,16.808 L130.657,16.808 L129.535,19.865 L124.208,19.865 L131.918,0.411 L137.527,0.411 L145.239,19.865 L139.911,19.865 L138.789,16.808 ZM135.228,7.025 C135.059,6.553 134.891,6.080 134.723,5.052 C134.555,6.080 134.387,6.553 134.219,7.025 L132.200,12.640 L137.247,12.640 L135.228,7.025 ZM117.141,9.526 L112.934,15.919 L109.962,15.919 L105.756,9.499 L100.568,1.581 L99.801,0.411 L100.568,0.411 L105.475,0.411 L111.448,9.526 L117.421,0.411 L122.329,0.411 L122.329,19.865 L117.141,19.865 L117.141,9.526 ZM103.172,19.865 L90.426,0.411 L96.100,0.411 L108.847,19.865 L103.172,19.865 ZM91.759,8.095 L99.471,19.865 L99.471,23.895 L99.471,25.007 L94.283,25.007 L94.283,19.865 L79.281,19.865 L79.281,0.411 L84.468,0.411 L84.468,15.279 L91.759,15.279 L91.759,8.095 ZM61.979,0.411 L76.112,0.411 L76.112,4.858 L67.166,4.858 L67.166,7.832 L75.270,7.832 L75.270,12.250 L67.166,12.250 L67.166,15.419 L76.280,15.419 L76.280,19.865 L61.979,19.865 L61.979,0.411 ZM53.089,4.997 L45.798,4.997 L45.798,19.865 L40.611,19.865 L40.611,0.411 L58.277,0.411 L58.277,19.865 L53.089,19.865 L53.089,4.997 ZM35.089,14.283 L38.145,17.311 C34.147,21.273 27.666,21.273 23.669,17.311 C19.673,13.350 19.673,6.927 23.669,2.965 C27.666,-0.996 34.147,-0.996 38.145,2.965 L35.088,5.994 C32.779,3.705 29.034,3.705 26.724,5.993 C24.415,8.283 24.415,11.994 26.724,14.283 C29.034,16.572 32.779,16.572 35.089,14.283 ZM12.365,13.529 L12.365,11.033 L10.542,13.529 L5.915,19.865 L-0.002,19.865 L5.298,12.834 C2.943,11.973 1.232,10.166 1.232,7.109 C1.232,2.245 5.018,0.411 9.280,0.411 L17.553,0.411 L17.553,19.865 L12.365,19.865 L12.365,13.529 ZM12.365,4.858 L9.336,4.858 C7.570,4.858 6.560,5.608 6.560,7.109 C6.560,8.610 7.570,9.360 9.336,9.360 L12.365,9.360 L12.365,4.858 Z"/>
</svg>