<svg 
 xmlns="http://www.w3.org/2000/svg"
 xmlns:xlink="http://www.w3.org/1999/xlink"
 width="0.854in" height="0.854in">
<path fill-rule="evenodd"  stroke="rgb(255, 255, 255)" stroke-width="1px" stroke-linecap="butt" stroke-linejoin="miter" fill="rgb(21, 24, 35)"
 d="M30.500,0.499 C47.068,0.499 60.499,13.931 60.499,30.500 C60.499,47.068 47.068,60.499 30.500,60.499 C13.931,60.499 0.499,47.068 0.499,30.500 C0.499,13.931 13.931,0.499 30.500,0.499 Z"/>
<path fill-rule="evenodd"  fill="rgb(255, 255, 255)"
 d="M44.840,39.417 C44.673,39.438 44.503,39.463 44.335,39.465 C42.677,39.467 41.019,39.463 39.363,39.470 C39.132,39.471 38.938,39.386 38.766,39.251 C38.420,38.974 38.064,38.702 37.744,38.393 C36.915,37.586 36.107,36.757 35.283,35.944 C35.028,35.689 34.753,35.456 34.484,35.215 C34.344,35.086 34.168,35.058 33.988,35.060 C33.746,35.066 33.544,35.174 33.449,35.394 C33.362,35.594 33.289,35.811 33.267,36.023 C33.225,36.408 33.223,36.797 33.216,37.183 C33.208,37.615 33.194,38.048 33.071,38.470 C33.015,38.656 32.936,38.844 32.838,39.011 C32.667,39.300 32.398,39.457 32.054,39.463 C30.607,39.496 29.159,39.517 27.713,39.424 C27.446,39.405 27.200,39.321 26.961,39.206 C25.612,38.557 24.428,37.693 23.399,36.618 C22.145,35.310 21.009,33.908 19.871,32.505 C18.340,30.615 17.017,28.591 15.828,26.481 C15.393,25.713 14.973,24.933 14.661,24.105 C14.507,23.696 14.507,23.287 14.623,22.875 C14.656,22.752 14.715,22.634 14.784,22.526 C14.883,22.370 15.033,22.282 15.227,22.279 C15.297,22.277 15.368,22.275 15.436,22.275 C16.939,22.275 18.441,22.281 19.944,22.270 C20.241,22.268 20.468,22.366 20.668,22.563 C21.037,22.927 21.326,23.350 21.585,23.790 C21.866,24.270 22.148,24.753 22.397,25.250 C22.944,26.345 23.614,27.365 24.323,28.360 C24.669,28.845 25.044,29.311 25.403,29.785 C25.571,30.006 25.802,30.090 26.068,30.097 C26.328,30.106 26.434,30.002 26.444,29.748 C26.447,29.686 26.446,29.627 26.446,29.565 C26.446,27.901 26.446,26.239 26.444,24.576 C26.444,24.447 26.444,24.316 26.431,24.188 C26.401,23.891 26.240,23.717 25.941,23.660 C25.805,23.634 25.666,23.622 25.528,23.604 C25.106,23.550 24.930,23.375 24.886,22.958 C24.821,22.330 25.128,21.839 25.729,21.618 C25.987,21.524 26.255,21.504 26.529,21.504 C27.868,21.506 29.207,21.504 30.546,21.505 C30.819,21.505 31.091,21.491 31.360,21.515 C31.644,21.542 31.928,21.578 32.203,21.657 C32.789,21.823 33.127,22.214 33.195,22.816 C33.211,22.960 33.216,23.105 33.216,23.248 C33.217,24.258 33.217,25.268 33.217,26.277 C33.217,27.348 33.217,28.419 33.219,29.490 C33.219,29.595 33.230,29.705 33.259,29.804 C33.353,30.129 33.715,30.236 34.017,30.031 C34.910,29.429 35.496,28.589 35.946,27.655 C36.363,26.791 36.723,25.901 37.113,25.025 C37.427,24.331 37.748,23.641 38.075,22.953 C38.155,22.783 38.273,22.627 38.381,22.471 C38.481,22.332 38.613,22.270 38.796,22.270 C40.742,22.276 42.683,22.275 44.628,22.273 C45.103,22.273 45.481,22.462 45.778,22.817 C45.882,22.943 45.925,23.092 45.953,23.255 C46.068,24.005 45.805,24.660 45.439,25.291 C45.091,25.886 44.680,26.437 44.231,26.958 C43.300,28.038 42.389,29.131 41.592,30.310 C41.386,30.614 41.212,30.936 41.023,31.249 C40.885,31.478 40.903,31.698 41.077,31.903 C41.428,32.318 41.767,32.743 42.137,33.139 C43.015,34.083 43.915,35.002 44.797,35.941 C45.080,36.243 45.335,36.568 45.597,36.888 C45.683,36.993 45.749,37.116 45.832,37.223 C46.494,38.058 45.671,39.311 44.840,39.417 Z"/>
</svg>