<svg 
 xmlns="http://www.w3.org/2000/svg"
 xmlns:xlink="http://www.w3.org/1999/xlink"
 width="0.854in" height="0.854in">
<path fill-rule="evenodd"  stroke="rgb(255, 255, 255)" stroke-width="1px" stroke-linecap="butt" stroke-linejoin="miter" fill="rgb(21, 24, 35)"
 d="M30.499,0.499 C47.068,0.499 60.500,13.931 60.500,30.500 C60.500,47.068 47.068,60.499 30.499,60.499 C13.931,60.499 0.499,47.068 0.499,30.500 C0.499,13.931 13.931,0.499 30.499,0.499 Z"/>
<path fill-rule="evenodd"  fill="rgb(255, 255, 255)"
 d="M42.145,36.741 L38.439,33.024 C37.701,32.287 36.479,32.310 35.716,33.075 L33.849,34.948 C33.731,34.882 33.610,34.814 33.481,34.742 C32.302,34.086 30.688,33.189 28.991,31.485 C27.288,29.778 26.391,28.157 25.737,26.975 C25.668,26.849 25.601,26.729 25.536,26.614 L26.788,25.359 L27.405,24.741 C28.170,23.974 28.191,22.748 27.454,22.009 L23.749,18.293 C23.013,17.555 21.790,17.577 21.025,18.344 L19.980,19.397 L20.009,19.426 C19.659,19.874 19.367,20.390 19.149,20.948 C18.949,21.478 18.822,21.985 18.766,22.492 C18.277,26.559 20.130,30.277 25.161,35.320 C32.113,42.293 37.717,41.766 37.959,41.740 C38.485,41.677 38.990,41.551 39.503,41.351 C40.054,41.135 40.569,40.842 41.015,40.492 L41.038,40.513 L42.096,39.474 C42.859,38.706 42.881,37.481 42.145,36.741 Z"/>
</svg>