<svg 
 xmlns="http://www.w3.org/2000/svg"
 xmlns:xlink="http://www.w3.org/1999/xlink" viewbox="0 0 1.542in 1.528in"
 width="1.542in" height="1.528in">
<path fill-rule="evenodd"  fill="rgb(29, 194, 29)"
 d="M107.748,110.000 L3.252,110.000 C1.456,110.000 -0.000,108.557 -0.000,106.777 C-0.000,104.997 1.456,103.554 3.252,103.554 L6.720,103.554 L6.720,35.449 C6.720,33.669 8.176,32.227 9.972,32.227 L22.980,32.227 C24.776,32.227 26.232,33.669 26.232,35.449 L26.232,103.554 L32.736,103.554 L32.736,54.785 C32.736,53.005 34.192,51.562 35.988,51.562 L48.996,51.562 C50.792,51.562 52.248,53.005 52.248,54.785 L52.248,103.554 L58.752,103.554 L58.752,80.566 C58.752,78.786 60.208,77.343 62.004,77.343 L75.011,77.343 C76.807,77.343 78.263,78.786 78.263,80.566 L78.263,103.554 L84.767,103.554 L84.767,67.675 C84.767,65.896 86.223,64.453 88.019,64.453 L101.027,64.453 C102.823,64.453 104.279,65.896 104.279,67.675 L104.279,103.554 L107.748,103.554 C109.544,103.554 110.999,104.997 110.999,106.777 C110.999,108.557 109.544,110.000 107.748,110.000 ZM19.728,38.671 L13.224,38.671 L13.224,103.554 L19.728,103.554 L19.728,38.671 ZM45.744,58.007 L39.240,58.007 L39.240,103.554 L45.744,103.554 L45.744,58.007 ZM71.760,83.789 L65.255,83.789 L65.255,103.554 L71.760,103.554 L71.760,83.789 ZM97.775,70.898 L91.271,70.898 L91.271,103.554 L97.775,103.554 L97.775,70.898 ZM94.523,51.562 C91.898,51.562 89.513,50.528 87.758,48.850 L78.187,53.592 C78.235,53.984 78.263,54.381 78.263,54.785 C78.263,60.116 73.886,64.453 68.507,64.453 C63.129,64.453 58.752,60.116 58.752,54.785 C58.752,53.294 59.094,51.881 59.705,50.619 L46.696,37.727 C45.422,38.332 43.996,38.671 42.491,38.671 C37.113,38.671 32.736,34.334 32.736,29.004 C32.736,27.997 32.893,27.026 33.182,26.113 L21.880,17.712 C20.332,18.738 18.474,19.336 16.477,19.336 C11.097,19.336 6.720,14.999 6.720,9.668 C6.720,4.337 11.097,-0.000 16.477,-0.000 C21.855,-0.000 26.232,4.337 26.232,9.668 C26.232,10.675 26.075,11.646 25.786,12.559 L37.088,20.959 C38.636,19.934 40.494,19.336 42.491,19.336 C47.871,19.336 52.248,23.673 52.248,29.004 C52.248,30.494 51.905,31.907 51.294,33.170 L64.304,46.062 C65.577,45.457 67.003,45.117 68.507,45.117 C71.132,45.117 73.518,46.152 75.273,47.829 L84.844,43.087 C84.795,42.695 84.767,42.299 84.767,41.894 C84.767,36.564 89.144,32.227 94.523,32.227 C99.902,32.227 104.279,36.564 104.279,41.894 C104.279,47.225 99.902,51.562 94.523,51.562 ZM16.477,6.445 C14.683,6.445 13.224,7.891 13.224,9.668 C13.224,11.445 14.683,12.890 16.477,12.890 C18.269,12.890 19.728,11.445 19.728,9.668 C19.728,7.891 18.269,6.445 16.477,6.445 ZM42.491,25.781 C40.699,25.781 39.240,27.227 39.240,29.004 C39.240,30.781 40.699,32.227 42.491,32.227 C44.285,32.227 45.744,30.781 45.744,29.004 C45.744,27.227 44.285,25.781 42.491,25.781 ZM68.507,51.562 C66.715,51.562 65.255,53.008 65.255,54.785 C65.255,56.561 66.715,58.007 68.507,58.007 C70.300,58.007 71.760,56.561 71.760,54.785 C71.760,53.008 70.300,51.562 68.507,51.562 ZM94.523,38.671 C92.730,38.671 91.271,40.117 91.271,41.894 C91.271,43.671 92.730,45.117 94.523,45.117 C96.316,45.117 97.775,43.671 97.775,41.894 C97.775,40.117 96.316,38.671 94.523,38.671 Z"/>
</svg>