<svg 
 xmlns="http://www.w3.org/2000/svg"
 xmlns:xlink="http://www.w3.org/1999/xlink" viewbox="0 0 1.542in 1.542in"
 width="1.542in" height="1.542in">
<path fill-rule="evenodd"  fill="rgb(29, 194, 29)"
 d="M99.035,34.831 L84.872,34.831 L84.872,23.920 L107.747,23.920 C109.543,23.920 110.999,22.464 110.999,20.668 C110.999,19.719 110.593,18.865 109.944,18.271 L103.633,11.960 L110.043,5.551 C110.973,4.621 111.250,3.222 110.747,2.008 C110.245,0.792 109.058,-0.000 107.743,-0.000 L81.619,-0.000 C79.824,-0.000 78.368,1.456 78.368,3.252 L78.368,34.831 L74.654,34.831 C68.059,34.831 62.694,40.197 62.694,46.792 L62.694,53.570 C61.057,52.728 59.204,52.248 57.238,52.248 L53.755,52.248 C47.161,52.248 41.796,57.613 41.796,64.208 L41.796,70.986 C40.158,70.144 38.305,69.664 36.340,69.664 L32.857,69.664 C26.262,69.664 20.897,75.030 20.897,81.625 L20.897,88.403 C19.261,87.559 17.406,87.080 15.442,87.080 L11.958,87.080 C5.364,87.080 -0.001,92.445 -0.001,99.040 L-0.001,107.747 C-0.001,109.544 1.455,111.000 3.252,111.000 L107.743,111.000 C109.539,111.000 110.994,109.544 110.994,107.747 L110.994,46.792 C110.994,40.197 105.630,34.831 99.035,34.831 L99.035,34.831 ZM84.872,6.504 L99.893,6.504 L96.736,9.660 C96.126,10.270 95.783,11.098 95.783,11.960 C95.783,12.823 96.126,13.649 96.736,14.259 L99.893,17.416 L84.872,17.416 L84.872,6.504 ZM6.503,99.040 C6.503,96.031 8.951,93.584 11.958,93.584 L15.442,93.584 C18.450,93.584 20.897,96.031 20.897,99.040 L20.897,104.496 L6.503,104.496 L6.503,99.040 ZM27.401,99.040 L27.401,81.625 C27.401,78.615 29.849,76.168 32.856,76.168 L36.340,76.168 C39.348,76.168 41.795,78.615 41.795,81.625 L41.795,104.496 L27.401,104.496 L27.401,99.040 ZM48.299,81.625 L48.299,64.208 C48.299,61.200 50.747,58.752 53.755,58.752 L57.238,58.752 C60.246,58.752 62.694,61.200 62.694,64.208 L62.694,104.496 L48.299,104.496 L48.299,81.625 ZM104.491,104.496 L69.198,104.496 L69.198,46.792 C69.198,43.784 71.645,41.336 74.654,41.336 L99.035,41.336 C102.043,41.336 104.491,43.784 104.491,46.792 L104.491,104.496 Z"/>
</svg>