<svg 
 xmlns="http://www.w3.org/2000/svg"
 xmlns:xlink="http://www.w3.org/1999/xlink" viewbox="0 0 1.542in 1.542in"
 width="1.542in" height="1.542in">
<path fill-rule="evenodd"  fill="rgb(29, 194, 29)"
 d="M55.283,111.000 C24.503,111.000 -0.000,85.612 -0.000,55.283 C-0.000,24.725 24.728,-0.000 55.283,-0.000 C85.578,-0.000 110.999,24.470 110.999,55.283 C110.999,85.914 85.731,111.000 55.283,111.000 ZM55.283,6.460 C28.386,6.460 6.460,28.386 6.460,55.283 C6.460,82.419 28.386,104.539 55.283,104.539 C82.419,104.539 104.539,82.419 104.539,55.283 C104.539,28.386 82.419,6.460 55.283,6.460 ZM55.283,97.992 C32.056,97.992 13.008,78.686 13.008,55.283 C13.008,31.955 31.997,13.008 55.283,13.008 C78.701,13.008 97.992,32.069 97.992,55.283 C97.992,78.665 78.587,97.992 55.283,97.992 ZM83.139,32.459 L81.011,34.588 C80.376,35.223 79.543,35.540 78.711,35.540 C75.840,35.540 74.357,32.044 76.412,29.988 L78.523,27.877 C73.011,23.306 66.105,20.326 58.535,19.657 L58.535,22.764 C58.535,24.559 57.079,26.015 55.283,26.015 C53.487,26.015 52.031,24.559 52.031,22.764 L52.031,19.660 C44.606,20.333 37.828,23.283 32.405,27.806 L34.588,29.989 C35.857,31.259 35.857,33.318 34.588,34.588 C33.318,35.858 31.259,35.858 29.989,34.588 L27.806,32.405 C23.282,37.828 20.333,44.606 19.661,52.031 L22.763,52.031 C24.559,52.031 26.015,53.487 26.015,55.283 C26.015,57.079 24.559,58.535 22.763,58.535 L19.657,58.535 C20.327,66.105 23.307,73.011 27.877,78.523 L29.989,76.412 C31.259,75.142 33.318,75.142 34.588,76.412 C35.857,77.682 35.857,79.741 34.588,81.011 L32.459,83.139 C37.873,87.691 44.630,90.659 52.030,91.337 L52.030,88.236 C52.030,86.440 53.487,84.984 55.283,84.984 C57.079,84.984 58.535,86.440 58.535,88.236 L58.535,91.333 C65.964,90.635 72.826,87.580 78.344,82.943 L76.412,81.010 C75.142,79.741 75.142,77.682 76.412,76.412 C77.682,75.142 79.741,75.142 81.011,76.412 L82.943,78.345 C87.580,72.827 90.635,65.964 91.333,58.535 L88.236,58.535 C86.440,58.535 84.984,57.079 84.984,55.283 C84.984,53.487 86.440,52.031 88.236,52.031 L91.337,52.031 C90.658,44.631 87.691,37.873 83.139,32.459 ZM71.024,70.590 C69.754,71.860 67.695,71.860 66.425,70.590 L53.417,57.582 C52.147,56.313 52.147,54.254 53.417,52.983 L66.425,39.976 C67.695,38.706 69.754,38.706 71.024,39.976 C72.294,41.245 72.294,43.305 71.024,44.574 L60.315,55.283 L71.024,65.991 C72.294,67.261 72.294,69.320 71.024,70.590 Z"/>
</svg>