<svg 
 xmlns="http://www.w3.org/2000/svg"
 xmlns:xlink="http://www.w3.org/1999/xlink" viewbox="0 0 1.542in 1.542in"
 width="1.542in" height="1.542in">
<path fill-rule="evenodd"  fill="rgb(29, 194, 29)"
 d="M107.748,110.999 L81.515,110.999 C79.719,110.999 78.263,109.544 78.263,107.748 C78.263,105.951 79.719,104.496 81.515,104.496 L104.496,104.496 L104.496,81.515 C104.496,79.719 105.952,78.263 107.748,78.263 C109.544,78.263 110.999,79.719 110.999,81.515 L110.999,107.748 C110.999,109.544 109.544,110.999 107.748,110.999 ZM107.748,58.751 L104.168,58.751 C102.560,83.062 83.062,102.560 58.752,104.168 L58.752,107.748 C58.752,109.544 57.296,110.999 55.499,110.999 C53.703,110.999 52.248,109.544 52.248,107.748 L52.248,104.168 C27.937,102.560 8.439,83.062 6.831,58.751 L3.252,58.751 C1.456,58.751 -0.000,57.296 -0.000,55.500 C-0.000,53.703 1.456,52.248 3.252,52.248 L6.831,52.248 C8.439,27.937 27.937,8.440 52.248,6.831 L52.248,3.252 C52.248,1.455 53.703,-0.000 55.499,-0.000 C57.296,-0.000 58.752,1.455 58.752,3.252 L58.752,6.831 C83.062,8.440 102.560,27.937 104.168,52.248 L107.748,52.248 C109.544,52.248 110.999,53.703 110.999,55.500 C110.999,57.296 109.544,58.751 107.748,58.751 ZM52.248,97.652 L52.248,91.122 C35.113,89.570 21.430,75.886 19.877,58.751 L13.348,58.751 C14.933,79.476 31.524,96.067 52.248,97.652 ZM52.248,13.348 C31.524,14.933 14.933,31.524 13.348,52.248 L19.877,52.248 C21.430,35.113 35.113,21.430 52.248,19.877 L52.248,13.348 ZM55.499,26.232 C40.461,26.232 28.037,37.634 26.414,52.248 L29.484,52.248 C31.280,52.248 32.736,53.703 32.736,55.500 C32.736,57.296 31.280,58.751 29.484,58.751 L26.414,58.751 C28.037,73.365 40.461,84.767 55.499,84.767 C70.538,84.767 82.963,73.322 84.585,58.708 L81.516,58.708 C79.720,58.708 78.264,57.296 78.264,55.500 C78.264,53.703 79.720,52.248 81.516,52.248 L84.585,52.248 C82.963,37.634 70.538,26.232 55.499,26.232 ZM58.752,13.348 L58.752,19.877 C75.886,21.430 89.570,35.113 91.122,52.248 L97.651,52.248 C96.067,31.524 79.475,14.933 58.752,13.348 ZM91.122,58.708 C89.570,75.843 75.886,89.570 58.752,91.122 L58.752,97.652 C79.475,96.067 96.067,79.432 97.651,58.708 L91.122,58.708 ZM55.499,52.248 C60.879,52.248 65.255,56.625 65.255,62.004 C65.255,66.090 62.677,69.774 58.838,71.171 C58.810,71.183 58.780,71.191 58.752,71.202 L58.752,75.011 C58.752,76.807 57.296,78.263 55.499,78.263 C53.703,78.263 52.248,76.807 52.248,75.011 L52.248,71.231 C50.102,70.509 48.056,69.073 46.298,66.980 C45.143,65.605 45.321,63.553 46.696,62.398 C48.072,61.243 50.123,61.421 51.278,62.797 C52.998,64.845 54.943,65.670 56.613,65.061 C57.892,64.595 58.752,63.366 58.752,62.004 C58.752,60.211 57.292,58.751 55.499,58.751 C50.121,58.751 45.744,54.375 45.744,48.996 C45.744,45.069 48.080,41.541 51.697,40.010 C51.880,39.933 52.063,39.863 52.248,39.797 L52.248,35.988 C52.248,34.192 53.703,32.736 55.499,32.736 C57.296,32.736 58.752,34.192 58.752,35.988 L58.752,39.776 C60.441,40.343 62.073,41.349 63.542,42.771 C64.831,44.021 64.863,46.080 63.615,47.370 C62.364,48.660 60.306,48.692 59.016,47.443 C57.432,45.908 55.689,45.382 54.234,45.999 C53.028,46.509 52.248,47.686 52.248,48.996 C52.248,50.789 53.707,52.248 55.499,52.248 ZM107.748,32.736 C105.952,32.736 104.496,31.280 104.496,29.484 L104.496,6.503 L81.515,6.503 C79.719,6.503 78.263,5.048 78.263,3.252 C78.263,1.455 79.719,-0.000 81.515,-0.000 L107.748,-0.000 C109.544,-0.000 110.999,1.455 110.999,3.252 L110.999,29.484 C110.999,31.280 109.544,32.736 107.748,32.736 ZM29.484,6.503 L6.503,6.503 L6.503,29.484 C6.503,31.280 5.048,32.736 3.252,32.736 C1.456,32.736 -0.000,31.280 -0.000,29.484 L-0.000,3.252 C-0.000,1.455 1.456,-0.000 3.252,-0.000 L29.484,-0.000 C31.280,-0.000 32.736,1.455 32.736,3.252 C32.736,5.048 31.280,6.503 29.484,6.503 ZM3.252,78.263 C5.048,78.263 6.503,79.719 6.503,81.515 L6.503,104.496 L29.484,104.496 C31.280,104.496 32.736,105.951 32.736,107.748 C32.736,109.544 31.280,110.999 29.484,110.999 L3.252,110.999 C1.456,110.999 -0.000,109.544 -0.000,107.748 L-0.000,81.515 C-0.000,79.719 1.456,78.263 3.252,78.263 Z"/>
</svg>