<svg 
 xmlns="http://www.w3.org/2000/svg"
 xmlns:xlink="http://www.w3.org/1999/xlink" viewbox="0 0 30 10"
 width="30" height="10">
<path fill-rule="evenodd"  fill="rgb(29, 194, 29)"
 d="M1.498,-0.001 L28.499,-0.001 C29.328,-0.001 29.999,0.671 29.999,1.500 C29.999,2.328 29.328,2.999 28.499,2.999 L1.498,2.999 C0.671,2.999 -0.001,2.328 -0.001,1.500 C-0.001,0.671 0.671,-0.001 1.498,-0.001 Z"/>
<path fill-rule="evenodd"  fill="rgb(29, 194, 29)"
 d="M1.498,6.999 L18.500,6.999 C19.327,6.999 19.999,7.671 19.999,8.500 C19.999,9.328 19.327,9.999 18.500,9.999 L1.498,9.999 C0.671,9.999 -0.001,9.328 -0.001,8.500 C-0.001,7.671 0.671,6.999 1.498,6.999 Z"/>
</svg>