<svg 
 xmlns="http://www.w3.org/2000/svg"
 xmlns:xlink="http://www.w3.org/1999/xlink" viewbox="0 0 16 17"
 width="16" height="17">
<path fill-rule="evenodd"  fill="rgb(29, 194, 29)"
 d="M15.674,14.993 L12.291,11.400 C13.114,10.185 13.565,8.735 13.565,7.207 C13.565,5.283 12.860,3.473 11.579,2.112 C10.298,0.752 8.593,0.001 6.781,0.001 C4.969,0.001 3.264,0.750 1.984,2.112 C0.703,3.472 -0.003,5.282 -0.003,7.207 C-0.003,9.132 0.702,10.941 1.984,12.304 C3.264,13.663 4.969,14.414 6.781,14.414 C8.218,14.414 9.584,13.936 10.727,13.062 L14.109,16.654 C14.326,16.883 14.609,16.998 14.892,16.998 C15.175,16.998 15.458,16.883 15.674,16.654 C16.105,16.195 16.105,15.451 15.674,14.993 ZM3.549,10.641 C2.684,9.723 2.209,8.504 2.209,7.207 C2.209,5.911 2.684,4.691 3.549,3.773 C4.412,2.855 5.560,2.350 6.781,2.350 C8.003,2.350 9.150,2.855 10.014,3.773 C10.877,4.691 11.353,5.911 11.353,7.207 C11.353,8.504 10.878,9.723 10.014,10.641 C9.149,11.559 8.003,12.063 6.781,12.063 C5.559,12.062 4.410,11.558 3.549,10.641 Z"/>
</svg>