<svg xmlns="http://www.w3.org/2000/svg" viewbox="0 0 60 60" width="60" height="60"><path fill-rule="evenodd" fill="#1DC21D" d="M30-.001C46.568-.001 59.999 13.431 59.999 30c0 16.568-13.431 29.999-29.999 29.999C13.431 59.999-.001 46.568-.001 30-.001 13.431 13.431-.001 30-.001z"/><path fill-rule="evenodd" fill="#FFF" d="M26.349 19.221l9.748 10.763-9.749 10.761a1.409 1.409 0 0 0 0 1.856 1.112 1.112 0 0 0 1.681 0l10.59-11.69a1.409 1.409 0 0 0 0-1.854l-10.59-11.689a1.113 1.113 0 0 0-1.682 0 1.407 1.407 0 0 0 .002 1.853z"/></svg>