<svg 
 xmlns="http://www.w3.org/2000/svg"
 xmlns:xlink="http://www.w3.org/1999/xlink" viewbox="0 0 123 19"
 width="123" height="19">
<path fill-rule="evenodd"  fill="rgb(247, 186, 94)"
 d="M9.499,0.546 L12.574,6.262 L18.960,7.420 L14.474,12.110 L15.347,18.542 L9.499,15.725 L3.652,18.542 L4.524,12.110 L0.038,7.420 L6.424,6.262 L9.499,0.546 Z"/>
<path fill-rule="evenodd"  fill="rgb(247, 186, 94)"
 d="M35.499,0.546 L38.574,6.262 L44.960,7.420 L40.474,12.110 L41.347,18.542 L35.499,15.725 L29.652,18.542 L30.524,12.110 L26.039,7.420 L32.424,6.262 L35.499,0.546 Z"/>
<path fill-rule="evenodd"  fill="rgb(247, 186, 94)"
 d="M61.500,0.546 L64.574,6.262 L70.960,7.420 L66.474,12.110 L67.346,18.542 L61.500,15.725 L55.652,18.542 L56.524,12.110 L52.038,7.420 L58.424,6.262 L61.500,0.546 Z"/>
<path fill-rule="evenodd"  fill="rgb(247, 186, 94)"
 d="M87.499,0.546 L90.574,6.262 L96.960,7.420 L92.474,12.110 L93.347,18.542 L87.499,15.725 L81.652,18.542 L82.524,12.110 L78.039,7.420 L84.424,6.262 L87.499,0.546 Z"/>
<path fill-rule="evenodd"  fill="rgb(210, 210, 210)"
 d="M113.499,0.546 L116.574,6.262 L122.960,7.420 L118.474,12.110 L119.346,18.542 L113.499,15.725 L107.652,18.542 L108.524,12.110 L104.038,7.420 L110.424,6.262 L113.499,0.546 Z"/>
</svg>