<svg xmlns="http://www.w3.org/2000/svg" viewbox="0 0 60 60" width="60" height="60"><path fill-rule="evenodd" fill="#D2D2D2" d="M29.999-.001c16.569 0 30 13.432 30 30.001 0 16.568-13.431 29.999-30 29.999-16.568 0-30-13.431-30-29.999 0-16.569 13.432-30.001 30-30.001z"/><path fill-rule="evenodd" fill="#FFF" d="M33.65 19.221l-9.748 10.763 9.748 10.761a1.409 1.409 0 0 1 0 1.856 1.112 1.112 0 0 1-1.681 0l-10.59-11.69a1.409 1.409 0 0 1 0-1.854l10.59-11.689a1.114 1.114 0 0 1 1.683 0c.463.51.463 1.342-.002 1.853z"/></svg>